<svg width="180" height="73" viewBox="0 0 180 73" fill="none" xmlns="http://www.w3.org/2000/svg">
<g id="Horizontal Logo 1 (white) 1" clip-path="url(#clip0_2033_13243)">
<g id="Layer 2">
<g id="Layer 1">
<path id="Vector" d="M16.5517 43.2481H13.7617C13.7617 39.5351 15.2367 35.9741 17.8622 33.3486C20.4877 30.7231 24.0487 29.2481 27.7617 29.2481C30.896 29.2368 33.9403 30.2951 36.3917 32.2481L34.6617 34.4381C32.6986 32.8833 30.266 32.0407 27.7617 32.0481C26.2897 32.0455 24.8316 32.3333 23.471 32.8951C22.1104 33.4569 20.8741 34.2817 19.8327 35.3221C18.7914 36.3625 17.9656 37.5981 17.4025 38.9582C16.8395 40.3183 16.5504 41.7761 16.5517 43.2481Z" fill="#FDD421"/>
<path id="Vector_2" d="M27.7227 57.209C24.0096 57.209 20.4487 55.734 17.8232 53.1085C15.1977 50.483 13.7227 46.922 13.7227 43.209H16.5127C16.5087 44.6822 16.796 46.1417 17.3579 47.5035C17.9199 48.8654 18.7454 50.1027 19.7872 51.1445C20.8289 52.1862 22.0662 53.0118 23.4281 53.5737C24.7899 54.1357 26.2494 54.4229 27.7227 54.419C30.2269 54.4265 32.6596 53.5838 34.6227 52.029L36.3527 54.229C33.8959 56.1699 30.8536 57.2204 27.7227 57.209Z" fill="#FDD421"/>
<path id="Vector_3" d="M28.1294 51.9985C26.396 52.0005 24.7009 51.4882 23.2588 50.5264C21.8167 49.5646 20.6924 48.1965 20.0281 46.5954C19.3638 44.9944 19.1895 43.2322 19.5272 41.532C19.8649 39.8318 20.6994 38.27 21.9251 37.0443C23.1508 35.8186 24.7126 34.984 26.4128 34.6464C28.113 34.3087 29.8752 34.483 31.4763 35.1472C33.0774 35.8115 34.4454 36.9359 35.4072 38.378C36.369 39.8201 36.8814 41.5151 36.8794 43.2485C36.8767 45.5683 35.954 47.7924 34.3136 49.4328C32.6733 51.0731 30.4492 51.9959 28.1294 51.9985ZM28.1294 37.2885C26.9427 37.2885 25.7826 37.6404 24.796 38.2997C23.8093 38.959 23.0402 39.8961 22.5861 40.9924C22.132 42.0888 22.0132 43.2952 22.2447 44.4591C22.4762 45.6229 23.0476 46.692 23.8867 47.5312C24.7258 48.3703 25.7949 48.9417 26.9588 49.1732C28.1227 49.4047 29.3291 49.2859 30.4255 48.8318C31.5218 48.3777 32.4589 47.6086 33.1182 46.6219C33.7775 45.6352 34.1294 44.4752 34.1294 43.2885C34.1294 41.6972 33.4972 40.1711 32.372 39.0459C31.2468 37.9207 29.7207 37.2885 28.1294 37.2885Z" fill="#FDD421"/>
<path id="Vector_4" d="M29.001 72.5283C27.8886 72.5279 26.777 72.4678 25.671 72.3483C20.1046 71.7012 14.8449 69.4552 10.528 65.882C6.21112 62.3087 3.022 57.5612 1.34634 52.2137C-0.329315 46.8662 -0.419729 41.1478 1.08604 35.75C2.5918 30.3522 5.62924 25.5062 9.831 21.7983C8.06006 20.8949 6.57886 19.5117 5.55655 17.8066C4.53425 16.1016 4.01205 14.1434 4.04959 12.1557C4.08714 10.168 4.68291 8.23091 5.76887 6.56567C6.85483 4.90043 8.38721 3.57414 10.191 2.73828L12.731 1.73828L12.281 4.24828C12.1043 5.37957 12.1725 6.53561 12.481 7.63828L13.711 6.22828C14.5364 5.28738 15.5529 4.53316 16.6927 4.01587C17.8324 3.49857 19.0693 3.23009 20.321 3.22828C21.8588 3.23917 23.3764 3.58019 24.771 4.22828C25.76 4.6477 26.7103 5.15297 27.611 5.73828C28.861 6.63828 30.611 7.73828 32.361 7.61828C32.301 6.47828 31.311 3.96828 30.651 3.49828L30.371 3.30828L26.151 0.738281H31.151C33.1421 0.746561 35.102 1.23303 36.8659 2.15673C38.6297 3.08044 40.1459 4.41435 41.2867 6.0462C42.4275 7.67805 43.1596 9.56007 43.4214 11.5339C43.6832 13.5077 43.467 15.5155 42.791 17.3883V17.5183C46.981 18.6283 49.681 22.1983 50.721 23.8383L53.001 27.4683L49.001 25.9583C47.461 25.3483 44.811 26.0783 43.941 26.6683C43.24 27.1242 42.6624 27.746 42.2595 28.4787C41.8565 29.2114 41.6406 30.0322 41.631 30.8683C41.6348 31.7165 41.8543 32.5498 42.2689 33.2898C42.6836 34.0298 43.2796 34.6521 44.001 35.0983C44.8584 35.561 45.6659 36.1106 46.411 36.7383C46.979 37.3886 47.4352 38.1287 47.761 38.9283C48.3921 40.2615 48.7329 41.7135 48.761 43.1883C48.7791 44.4578 48.682 45.7263 48.471 46.9783C47.8954 50.2702 46.4955 53.3627 44.4019 55.9675C42.3083 58.5723 39.5892 60.6045 36.4981 61.8746C33.407 63.1447 30.0446 63.6113 26.7245 63.231C23.4043 62.8506 20.2346 61.6357 17.5108 59.6995C14.787 57.7633 12.5979 55.1688 11.1476 52.1581C9.69724 49.1473 9.03298 45.8184 9.21671 42.4815C9.40044 39.1447 10.4262 35.9088 12.1983 33.0755C13.9704 30.2422 16.4311 27.9037 19.351 26.2783L20.711 28.7383C18.2028 30.1326 16.0884 32.1392 14.5648 34.5711C13.0412 37.0029 12.158 39.7809 11.9976 42.6461C11.8371 45.5113 12.4045 48.3705 13.6471 50.9573C14.8896 53.5441 16.7667 55.7742 19.1035 57.4399C21.4403 59.1056 24.1608 60.1526 27.0114 60.4834C29.862 60.8142 32.7499 60.418 35.4061 59.3317C38.0622 58.2454 40.4002 56.5044 42.2021 54.2709C44.0039 52.0374 45.2111 49.3841 45.711 46.5583C45.9083 45.4728 46.0054 44.3715 46.001 43.2683C45.9735 42.1818 45.7216 41.1127 45.261 40.1283C45.0673 39.6297 44.7975 39.1641 44.461 38.7483C43.8785 38.2754 43.2562 37.8538 42.601 37.4883C41.4694 36.7936 40.535 35.8201 39.8872 34.6611C39.2394 33.502 38.8998 32.1961 38.901 30.8683C38.9115 29.5735 39.2409 28.3012 39.8601 27.164C40.4793 26.0268 41.3691 25.0597 42.451 24.3483C43.6932 23.609 45.0826 23.1515 46.521 23.0083C45.0107 21.3225 42.9309 20.2542 40.681 20.0083L40.251 19.9083L38.791 19.3083L39.501 17.9083C39.7758 17.4461 40.01 16.9609 40.201 16.4583C40.6336 15.2516 40.8212 13.9708 40.7529 12.6907C40.6845 11.4106 40.3615 10.1571 39.8028 9.00333C39.2441 7.84961 38.4609 6.8189 37.499 5.97152C36.5372 5.12414 35.4159 4.4771 34.201 4.06828C34.9021 5.49713 35.1797 7.09676 35.001 8.67828C34.9175 9.12959 34.6885 9.54113 34.349 9.84995C34.0095 10.1588 33.5782 10.3478 33.121 10.3883C32.8145 10.404 32.5075 10.404 32.201 10.3883C29.9396 10.2555 27.7743 9.42784 26.001 8.01828C25.2338 7.52085 24.424 7.0925 23.581 6.73828C22.6203 6.25699 21.5605 6.00639 20.486 6.00639C19.4115 6.00639 18.3517 6.25699 17.391 6.73828H17.441C17.9975 7.1932 18.3945 7.81368 18.5744 8.50962C18.7542 9.20556 18.7075 9.9407 18.441 10.6083C17.9818 11.5178 17.2654 12.2724 16.381 12.7783C15.7129 13.2253 14.9096 13.425 14.1099 13.3429C13.3102 13.2607 12.5643 12.9018 12.001 12.3283C10.5395 10.7278 9.63758 8.69579 9.431 6.53828C8.36128 7.49063 7.57442 8.71913 7.15669 10.0891C6.73897 11.459 6.7065 12.9176 7.06285 14.3048C7.4192 15.6919 8.15062 16.9542 9.1769 17.9533C10.2032 18.9523 11.4847 19.6494 12.881 19.9683L15.881 20.6383L13.481 22.4683C10.5186 24.6373 8.0455 27.4053 6.22242 30.5923C4.39934 33.7793 3.26701 37.3142 2.89898 40.9673C2.53094 44.6204 2.93544 48.3101 4.08618 51.7968C5.23693 55.2834 7.10819 58.489 9.57845 61.2054C12.0487 63.9217 15.0627 66.0881 18.4247 67.5638C21.7867 69.0395 25.4215 69.7916 29.0931 69.7711C32.7647 69.7506 36.3909 68.9581 39.7362 67.445C43.0815 65.9319 46.0712 63.732 48.511 60.9883L50.591 62.8583C47.8866 65.9124 44.5621 68.3546 40.8391 70.0221C37.1161 71.6896 33.0803 72.544 29.001 72.5283ZM12.661 8.15828C12.9488 8.98919 13.405 9.75177 14.001 10.3983C14.1066 10.5063 14.2475 10.5728 14.398 10.5857C14.5485 10.5985 14.6986 10.5569 14.821 10.4683C15.691 9.89828 15.821 9.55828 15.821 9.54828C15.8556 9.44038 15.8589 9.32488 15.8306 9.21515C15.8023 9.10543 15.7435 9.00597 15.661 8.92828C15.3221 8.67957 14.9271 8.51815 14.511 8.45828L12.661 8.15828Z" fill="#FFF8F0"/>
<path id="Vector_5" d="M28.1308 39.3985C27.3702 39.4024 26.6278 39.6316 25.9973 40.057C25.3668 40.4825 24.8765 41.0851 24.5881 41.789C24.2998 42.4928 24.2264 43.2663 24.3772 44.0118C24.528 44.7573 24.8963 45.4414 25.4355 45.9778C25.9747 46.5143 26.6607 46.879 27.407 47.0259C28.1533 47.1729 28.9264 47.0954 29.6287 46.8035C30.331 46.5115 30.9311 46.018 31.3533 45.3853C31.7755 44.7527 32.0008 44.0091 32.0008 43.2485C32.0008 42.7412 31.9005 42.2389 31.7058 41.7705C31.5111 41.3021 31.2257 40.8768 30.8661 40.519C30.5065 40.1613 30.0797 39.8781 29.6103 39.6858C29.1408 39.4935 28.6381 39.3959 28.1308 39.3985ZM30.2008 43.9485C29.6213 44.2631 29.1454 44.739 28.8308 45.3185L28.1308 46.5985L27.4308 45.3185C27.1162 44.739 26.6403 44.2631 26.0608 43.9485L24.7808 43.2485L26.0608 42.5485C26.6386 42.2271 27.1136 41.7487 27.4308 41.1685L28.1308 39.8885L28.8308 41.1685C29.1479 41.7487 29.6229 42.2271 30.2008 42.5485L31.4808 43.2485L30.2008 43.9485Z" fill="#FFF8F0"/>
<path id="Vector_6" d="M28.1303 42.1875C27.9207 42.1875 27.7157 42.2497 27.5414 42.3662C27.3671 42.4827 27.2312 42.6482 27.151 42.8419C27.0708 43.0356 27.0498 43.2487 27.0907 43.4543C27.1316 43.66 27.2325 43.8488 27.3808 43.9971C27.529 44.1453 27.7179 44.2463 27.9235 44.2872C28.1291 44.3281 28.3423 44.3071 28.536 44.2269C28.7296 44.1466 28.8952 44.0108 29.0117 43.8365C29.1281 43.6621 29.1903 43.4572 29.1903 43.2475C29.1916 43.108 29.1651 42.9695 29.1123 42.8403C29.0595 42.7111 28.9815 42.5937 28.8828 42.495C28.7841 42.3963 28.6667 42.3183 28.5375 42.2655C28.4083 42.2127 28.2699 42.1862 28.1303 42.1875Z" fill="#FFF8F0"/>
<path id="Vector_7" d="M65.5898 37.649V22.009H74.3798C75.3923 21.9892 76.3944 22.2157 77.2999 22.669C78.114 23.0816 78.8041 23.7027 79.2999 24.469C79.8016 25.2456 80.0593 26.1546 80.0398 27.079C80.0545 27.9809 79.7966 28.8661 79.2999 29.619C78.8041 30.3778 78.1133 30.9892 77.2999 31.389C76.396 31.8358 75.3979 32.0587 74.3898 32.039H69.6898V37.649H65.5898ZM69.6898 28.869H73.8998C74.431 28.8965 74.9528 28.7213 75.3598 28.379C75.5375 28.2177 75.6779 28.0197 75.7711 27.7986C75.8644 27.5775 75.9083 27.3388 75.8998 27.099C75.9086 26.8562 75.8648 26.6144 75.7716 26.3901C75.6785 26.1658 75.538 25.9642 75.3598 25.799C74.9564 25.4495 74.4329 25.2702 73.8998 25.299H69.6898V28.869Z" fill="#FFF8F0"/>
<path id="Vector_8" d="M90.6993 37.8978C89.5046 37.9062 88.3184 37.696 87.1993 37.2778C86.1518 36.8903 85.1879 36.3065 84.3593 35.5577C83.5594 34.8401 82.916 33.9652 82.4693 32.9878C82.0209 31.9946 81.7891 30.9174 81.7891 29.8278C81.7891 28.7381 82.0209 27.6609 82.4693 26.6678C82.9187 25.6919 83.5617 24.8175 84.3593 24.0978C85.1879 23.349 86.1518 22.7652 87.1993 22.3777C89.4594 21.5512 91.9392 21.5512 94.1993 22.3777C95.2325 22.7698 96.1825 23.3533 96.9993 24.0978C97.7969 24.8175 98.4399 25.6919 98.8893 26.6678C99.3376 27.6609 99.5695 28.7381 99.5695 29.8278C99.5695 30.9174 99.3376 31.9946 98.8893 32.9878C98.4426 33.9652 97.7992 34.8401 96.9993 35.5577C96.1706 36.3065 95.2067 36.8903 94.1593 37.2778C93.053 37.6921 91.8806 37.9022 90.6993 37.8978ZM90.6993 34.3678C91.3361 34.3723 91.9677 34.2534 92.5593 34.0177C93.1157 33.7834 93.6216 33.4439 94.0493 33.0177C94.478 32.6115 94.8184 32.1213 95.0493 31.5778C95.5159 30.4196 95.5159 29.1259 95.0493 27.9678C94.8157 27.4286 94.4756 26.9422 94.0493 26.5377C93.6216 26.1116 93.1157 25.7721 92.5593 25.5377C91.3607 25.0846 90.0379 25.0846 88.8393 25.5377C88.2829 25.7721 87.777 26.1116 87.3493 26.5377C86.923 26.9422 86.5829 27.4286 86.3493 27.9678C86.1079 28.5507 85.9888 29.1769 85.9993 29.8077C85.9956 30.4315 86.1145 31.0499 86.3493 31.6277C86.5802 32.1713 86.9206 32.6615 87.3493 33.0678C87.777 33.4939 88.2829 33.8334 88.8393 34.0678C89.4342 34.2864 90.0658 34.3883 90.6993 34.3678Z" fill="#FFF8F0"/>
<path id="Vector_9" d="M109.363 37.8778C107.981 37.9071 106.611 37.6126 105.363 37.0178C104.267 36.4743 103.353 35.6229 102.733 34.5678C102.093 33.4308 101.772 32.1422 101.803 30.8378V22.0078H105.903V30.8378C105.887 31.4777 106.035 32.1111 106.333 32.6778C106.608 33.1977 107.033 33.6228 107.553 33.8978C108.126 34.1864 108.761 34.3306 109.403 34.3178C110.045 34.3352 110.681 34.1907 111.253 33.8978C111.761 33.6135 112.177 33.1903 112.453 32.6778C112.75 32.1111 112.898 31.4777 112.883 30.8378V22.0078H117.003V30.8378C117.028 32.1365 116.704 33.418 116.063 34.5478C115.432 35.6014 114.513 36.4518 113.413 36.9978C112.154 37.6135 110.764 37.9154 109.363 37.8778Z" fill="#FFF8F0"/>
<path id="Vector_10" d="M119.723 37.6478V22.0078H123.823V34.2478H132.613V37.6478H119.723Z" fill="#FFF8F0"/>
<path id="Vector_11" d="M136.302 37.6478V25.4078H130.852V22.0078H145.852V25.4078H140.402V37.6478H136.302Z" fill="#FFF8F0"/>
<path id="Vector_12" d="M147.91 37.6491V22.0091H156.44C157.492 21.9885 158.535 22.2074 159.49 22.6491C160.333 23.0319 161.053 23.6412 161.57 24.4091C162.075 25.1738 162.336 26.0732 162.32 26.9891C162.336 27.9405 162.034 28.8699 161.46 29.6291C160.883 30.4125 160.101 31.0215 159.2 31.3891L162.84 37.6491H158.27L155.13 31.9491H152V37.6491H147.91ZM152 28.8291H156.05C156.607 28.8546 157.154 28.677 157.59 28.3291C157.772 28.1714 157.918 27.9764 158.018 27.7573C158.119 27.5382 158.17 27.3001 158.17 27.0591C158.17 26.8182 158.119 26.5801 158.018 26.361C157.918 26.1419 157.772 25.9469 157.59 25.7891C157.153 25.4449 156.606 25.2708 156.05 25.2991H152V28.8291Z" fill="#FFF8F0"/>
<path id="Vector_13" d="M169 37.6478V31.8178L162.09 22.0078H166.81L171.17 28.4178L175.55 22.0078H180L173.09 31.8178V37.6478H169Z" fill="#FFF8F0"/>
<path id="Vector_14" d="M68.1995 51.5075C67.6116 51.5148 67.0278 51.4096 66.4795 51.1975C65.9645 51.0042 65.4923 50.712 65.0895 50.3375C64.6973 49.977 64.3811 49.5418 64.1595 49.0575C63.9435 48.557 63.832 48.0176 63.832 47.4725C63.832 46.9274 63.9435 46.388 64.1595 45.8875C64.3811 45.4032 64.6973 44.968 65.0895 44.6075C65.4961 44.2329 65.9715 43.9408 66.4895 43.7475C67.0359 43.5412 67.6154 43.4362 68.1995 43.4375C68.6317 43.4379 69.0621 43.4951 69.4795 43.6075C69.8861 43.7048 70.2767 43.8597 70.6395 44.0675C70.9809 44.2594 71.2911 44.5022 71.5595 44.7875L70.7295 45.5975C70.4203 45.2464 70.0334 44.9724 69.5995 44.7975C69.1546 44.6178 68.6792 44.5262 68.1995 44.5275C67.7899 44.5229 67.3831 44.5941 66.9995 44.7375C66.6295 44.8782 66.29 45.0887 65.9995 45.3575C65.7203 45.6188 65.4989 45.9356 65.3495 46.2875C65.1901 46.6601 65.1117 47.0623 65.1195 47.4675C65.1136 47.8661 65.192 48.2614 65.3495 48.6275C65.4989 48.9849 65.7241 49.3056 66.0095 49.5675C66.303 49.8324 66.6417 50.0424 67.0095 50.1875C67.853 50.5101 68.7889 50.4922 69.6195 50.1375C70.0413 49.965 70.4201 49.7022 70.7295 49.3675L71.5495 50.1475C71.2475 50.4283 70.9115 50.6702 70.5495 50.8675C69.8225 51.2852 68.9978 51.5026 68.1595 51.4975L68.1995 51.5075Z" fill="#FFF8F0"/>
<path id="Vector_15" d="M80.8509 51.5077C80.2729 51.5131 79.6993 51.4079 79.1609 51.1977C78.6501 51.0018 78.1817 50.7099 77.7809 50.3377C77.3829 49.9824 77.0658 49.5459 76.8509 49.0577C76.6349 48.5572 76.5234 48.0178 76.5234 47.4727C76.5234 46.9275 76.6349 46.3882 76.8509 45.8877C77.0658 45.3994 77.3829 44.9629 77.7809 44.6077C78.1808 44.2319 78.6493 43.9365 79.1609 43.7377C80.2531 43.3244 81.4587 43.3244 82.5509 43.7377C83.0658 43.931 83.538 44.2231 83.9409 44.5977C84.333 44.9581 84.6492 45.3933 84.8709 45.8777C85.0869 46.3782 85.1983 46.9175 85.1983 47.4627C85.1983 48.0078 85.0869 48.5472 84.8709 49.0477C84.6492 49.532 84.333 49.9672 83.9409 50.3277C83.538 50.7022 83.0658 50.9943 82.5509 51.1877C82.0099 51.4021 81.4328 51.5107 80.8509 51.5077ZM80.8509 50.4277C81.2588 50.4298 81.6631 50.3516 82.0409 50.1977C82.7665 49.9096 83.3512 49.3499 83.6709 48.6377C83.8276 48.2675 83.9084 47.8696 83.9084 47.4677C83.9084 47.0657 83.8276 46.6678 83.6709 46.2977C83.5141 45.9473 83.2899 45.6313 83.0109 45.3677C82.7217 45.097 82.3819 44.8863 82.0109 44.7477C81.6324 44.5971 81.2281 44.5224 80.8209 44.5277C80.4039 44.5225 79.9898 44.5972 79.6009 44.7477C79.2321 44.8907 78.893 45.101 78.6009 45.3677C78.1896 45.7928 77.9132 46.3301 77.8065 46.9119C77.6997 47.4938 77.7674 48.0942 78.0009 48.6377C78.1477 48.9915 78.3655 49.3114 78.6409 49.5777C78.93 49.8483 79.2699 50.059 79.6409 50.1977C80.0322 50.3528 80.4499 50.4309 80.8709 50.4277H80.8509Z" fill="#FFF8F0"/>
<path id="Vector_16" d="M90.8125 51.3884V43.5684H92.0725V50.3484H96.8725V51.3484L90.8125 51.3884Z" fill="#FFF8F0"/>
<path id="Vector_17" d="M102.422 51.3884V43.5684H103.672V50.3484H108.472V51.3484L102.422 51.3884Z" fill="#FFF8F0"/>
<path id="Vector_18" d="M114 51.3884V43.5684H120.15V44.5684H115.25V46.9384H118.47V47.9384H115.25V50.3584H120.25V51.3584L114 51.3884Z" fill="#FFF8F0"/>
<path id="Vector_19" d="M129.281 51.5075C128.693 51.5148 128.109 51.4096 127.561 51.1975C127.046 51.0042 126.574 50.712 126.171 50.3375C125.771 49.9748 125.452 49.5325 125.234 49.0391C125.015 48.5457 124.902 48.0121 124.902 47.4725C124.902 46.9329 125.015 46.3993 125.234 45.9059C125.452 45.4125 125.771 44.9703 126.171 44.6075C126.576 44.2308 127.052 43.9385 127.571 43.7475C128.117 43.5412 128.697 43.4362 129.281 43.4375C129.713 43.4379 130.143 43.4951 130.561 43.6075C130.967 43.7066 131.357 43.8614 131.721 44.0675C132.062 44.2594 132.372 44.5022 132.641 44.7875L131.811 45.5975C131.499 45.2451 131.108 44.9711 130.671 44.7975C130.23 44.6169 129.757 44.5251 129.281 44.5275C128.86 44.5223 128.443 44.597 128.051 44.7475C127.681 44.8893 127.342 45.0997 127.051 45.3675C126.633 45.7883 126.349 46.3235 126.235 46.9055C126.121 47.4875 126.182 48.0902 126.411 48.6375C126.56 48.9949 126.785 49.3156 127.071 49.5775C127.363 49.8446 127.702 50.0548 128.071 50.1975C128.914 50.5201 129.85 50.5022 130.681 50.1475C131.101 49.9773 131.477 49.714 131.781 49.3775L132.611 50.1575C132.307 50.4358 131.971 50.6774 131.611 50.8775C131.252 51.0806 130.869 51.2385 130.471 51.3475C130.082 51.4502 129.682 51.504 129.281 51.5075Z" fill="#FFF8F0"/>
<path id="Vector_20" d="M140.539 51.3874V44.6074H137.609V43.6074H144.719V44.6074H141.789V51.3874H140.539Z" fill="#FFF8F0"/>
<path id="Vector_21" d="M150.062 51.3884V43.5684H151.312V51.3884H150.062Z" fill="#FFF8F0"/>
<path id="Vector_22" d="M159.873 51.3884L156.473 43.5684H157.813L160.643 50.2184L163.513 43.5684H164.793L161.343 51.3884H159.873Z" fill="#FFF8F0"/>
<path id="Vector_23" d="M169.941 51.3884V43.5684H176.091V44.5684H171.191V46.9384H174.411V47.9384H171.191V50.3584H176.141V51.3584L169.941 51.3884Z" fill="#FFF8F0"/>
</g>
</g>
</g>
<defs>
<clipPath id="clip0_2033_13243">
<rect width="180" height="71.79" fill="white" transform="translate(0 0.738281)"/>
</clipPath>
</defs>
</svg>
