<svg width="32" height="33" viewBox="0 0 32 33" fill="none" xmlns="http://www.w3.org/2000/svg">
<g id="vuesax/linear/moneys">
<g id="Group">
<path id="Vector" d="M25.7346 10.8217V17.6884C25.7346 21.7951 23.3879 23.555 19.8679 23.555H8.14791C7.54791 23.555 6.97458 23.5018 6.44124 23.3818C6.10791 23.3284 5.78792 23.2351 5.49459 23.1284C3.49459 22.3818 2.28125 20.6484 2.28125 17.6884V10.8217C2.28125 6.71503 4.62791 4.95508 8.14791 4.95508H19.8679C22.8546 4.95508 25.0013 6.22174 25.5746 9.11507C25.6679 9.64841 25.7346 10.195 25.7346 10.8217Z" stroke="#1A1A1A" stroke-width="1.5" stroke-miterlimit="10" stroke-linecap="round" stroke-linejoin="round"/>
<path id="Vector_2" d="M29.7347 14.8219V21.6886C29.7347 25.7952 27.3881 27.5552 23.8681 27.5552H12.1481C11.1614 27.5552 10.2681 27.4219 9.49475 27.1286C7.90808 26.5419 6.82807 25.3286 6.44141 23.3819C6.97474 23.5019 7.54807 23.5552 8.14807 23.5552H19.8681C23.3881 23.5552 25.7347 21.7952 25.7347 17.6886V10.8219C25.7347 10.1952 25.6814 9.63523 25.5747 9.11523C28.1081 9.64857 29.7347 11.4352 29.7347 14.8219Z" stroke="#1A1A1A" stroke-width="1.5" stroke-miterlimit="10" stroke-linecap="round" stroke-linejoin="round"/>
<path id="Vector_3" d="M14.0005 17.7813C15.9445 17.7813 17.5205 16.2053 17.5205 14.2612C17.5205 12.3172 15.9445 10.7412 14.0005 10.7412C12.0564 10.7412 10.4805 12.3172 10.4805 14.2612C10.4805 16.2053 12.0564 17.7813 14.0005 17.7813Z" stroke="#1A1A1A" stroke-width="1.5" stroke-miterlimit="10" stroke-linecap="round" stroke-linejoin="round"/>
<path id="Vector_4" d="M6.375 11.3281V17.1948" stroke="#1A1A1A" stroke-width="1.5" stroke-miterlimit="10" stroke-linecap="round" stroke-linejoin="round"/>
<path id="Vector_5" d="M21.6289 11.3291V17.1958" stroke="#1A1A1A" stroke-width="1.5" stroke-miterlimit="10" stroke-linecap="round" stroke-linejoin="round"/>
</g>
</g>
</svg>
