<svg width="32" height="33" viewBox="0 0 32 33" fill="none" xmlns="http://www.w3.org/2000/svg">
<g id="vuesax/linear/shopping-cart">
<g id="shopping-cart">
<path id="Vector" d="M2.66797 2.92871H4.98798C6.42798 2.92871 7.5613 4.16871 7.4413 5.59538L6.33464 18.8754C6.14797 21.0487 7.86796 22.9154 10.0546 22.9154H24.2546C26.1746 22.9154 27.8546 21.3421 28.0013 19.4354L28.7213 9.43538C28.8813 7.22205 27.2013 5.42204 24.9746 5.42204H7.76131" stroke="#1A1A1A" stroke-width="1.5" stroke-miterlimit="10" stroke-linecap="round" stroke-linejoin="round"/>
<path id="Vector_2" d="M21.6667 29.5951C22.5871 29.5951 23.3333 28.8489 23.3333 27.9284C23.3333 27.0079 22.5871 26.2617 21.6667 26.2617C20.7462 26.2617 20 27.0079 20 27.9284C20 28.8489 20.7462 29.5951 21.6667 29.5951Z" stroke="#1A1A1A" stroke-width="1.5" stroke-miterlimit="10" stroke-linecap="round" stroke-linejoin="round"/>
<path id="Vector_3" d="M10.9987 29.5951C11.9192 29.5951 12.6654 28.8489 12.6654 27.9284C12.6654 27.0079 11.9192 26.2617 10.9987 26.2617C10.0782 26.2617 9.33203 27.0079 9.33203 27.9284C9.33203 28.8489 10.0782 29.5951 10.9987 29.5951Z" stroke="#1A1A1A" stroke-width="1.5" stroke-miterlimit="10" stroke-linecap="round" stroke-linejoin="round"/>
<path id="Vector_4" d="M12 10.9287H28" stroke="#1A1A1A" stroke-width="1.5" stroke-miterlimit="10" stroke-linecap="round" stroke-linejoin="round"/>
</g>
</g>
</svg>
