<svg width="32" height="33" viewBox="0 0 32 33" fill="none" xmlns="http://www.w3.org/2000/svg">
<g id="vuesax/linear/user-edit">
<g id="user-edit">
<path id="Vector" d="M15.9987 16.262C19.6806 16.262 22.6654 13.2773 22.6654 9.59538C22.6654 5.91348 19.6806 2.92871 15.9987 2.92871C12.3168 2.92871 9.33203 5.91348 9.33203 9.59538C9.33203 13.2773 12.3168 16.262 15.9987 16.262Z" stroke="#1A1A1A" stroke-width="1.5" stroke-linecap="round" stroke-linejoin="round"/>
<g id="Group">
<path id="Vector_2" d="M25.6121 21.2484L20.8921 25.9685C20.7054 26.1551 20.5321 26.5018 20.4921 26.7551L20.2387 28.5551C20.1454 29.2084 20.5988 29.6617 21.2521 29.5684L23.0521 29.3151C23.3054 29.2751 23.6654 29.1017 23.8388 28.9151L28.5587 24.1951C29.3721 23.3818 29.7587 22.4351 28.5587 21.2351C27.3721 20.0484 26.4254 20.4351 25.6121 21.2484Z" stroke="#1A1A1A" stroke-width="1.5" stroke-miterlimit="10" stroke-linecap="round" stroke-linejoin="round"/>
<path id="Vector_3" d="M24.9336 21.9287C25.3336 23.3687 26.4536 24.4887 27.8936 24.8887" stroke="#1A1A1A" stroke-width="1.5" stroke-miterlimit="10" stroke-linecap="round" stroke-linejoin="round"/>
</g>
<path id="Vector_4" d="M4.54688 29.5951C4.54688 24.4351 9.68024 20.2617 16.0002 20.2617C17.3869 20.2617 18.7202 20.4617 19.9602 20.835" stroke="#1A1A1A" stroke-width="1.5" stroke-linecap="round" stroke-linejoin="round"/>
</g>
</g>
</svg>
