<svg width="53" height="72" viewBox="0 0 53 72" fill="none" xmlns="http://www.w3.org/2000/svg">
<g id="Logomark 1" clip-path="url(#clip0_1623_17518)">
<g id="Layer 2">
<g id="Layer 1">
<path id="Vector" d="M16.6401 42.6299H13.8601C13.8599 38.9376 15.3184 35.3947 17.9181 32.7726C20.5177 30.1505 24.0479 28.6616 27.7401 28.6299C30.8587 28.6212 33.8864 29.6798 36.3201 31.6299L34.6001 33.8299C32.6553 32.2687 30.234 31.4216 27.7401 31.4299C24.7845 31.4484 21.9568 32.6376 19.8763 34.7368C17.7958 36.8361 16.6321 39.6744 16.6401 42.6299Z" fill="#FDD421"/>
<path id="Vector_2" d="M27.7401 56.6299C24.0479 56.5982 20.5177 55.1093 17.9181 52.4872C15.3184 49.8651 13.8599 46.3222 13.8601 42.6299H16.6401C16.6294 45.5863 17.7923 48.426 19.8734 50.5259C21.9545 52.6257 24.7837 53.814 27.7401 53.8299C30.2322 53.8378 32.6524 52.9947 34.6001 51.4399L36.3201 53.6399C33.8846 55.5857 30.8573 56.6407 27.7401 56.6299Z" fill="#FDD421"/>
<path id="Vector_3" d="M28.1901 51.4102C26.4502 51.4261 24.7449 50.9246 23.2906 49.9696C21.8362 49.0145 20.6984 47.6489 20.0216 46.046C19.3448 44.4431 19.1594 42.6753 19.4891 40.9669C19.8188 39.2585 20.6487 37.6866 21.8733 36.4507C23.098 35.2148 24.6622 34.3706 26.3675 34.0252C28.0728 33.6799 29.8423 33.8491 31.4513 34.5112C33.0603 35.1733 34.4363 36.2986 35.4046 37.7441C36.373 39.1897 36.89 40.8903 36.8901 42.6302C36.8981 44.9474 35.9866 47.1732 34.3556 48.8192C32.7246 50.4652 30.5072 51.397 28.1901 51.4102ZM28.1901 36.6502C27.0001 36.6344 25.8323 36.9727 24.8351 37.6223C23.838 38.2719 23.0565 39.2033 22.5901 40.2981C22.1237 41.393 21.9934 42.6019 22.2158 43.771C22.4382 44.9401 23.0032 46.0166 23.839 46.8638C24.6749 47.7109 25.7438 48.2903 26.9098 48.5284C28.0758 48.7665 29.2863 48.6524 30.3873 48.2007C31.4883 47.7491 32.4302 46.9802 33.0931 45.9918C33.756 45.0035 34.11 43.8403 34.1101 42.6502C34.1102 41.0727 33.4891 39.5586 32.3811 38.4356C31.2731 37.3127 29.7675 36.6713 28.1901 36.6502Z" fill="#FDD421"/>
<path id="Vector_4" d="M29.0301 72C27.924 72.0009 26.8188 71.9375 25.7201 71.81C20.1624 71.117 14.9223 68.837 10.6268 65.2431C6.33133 61.6492 3.16254 56.8935 1.49976 51.5454C-0.16303 46.1972 -0.249373 40.4832 1.25106 35.0873C2.7515 29.6913 5.77514 24.8421 9.96007 21.12C8.19507 20.2041 6.72111 18.8133 5.70448 17.1044C4.68784 15.3954 4.16897 13.4364 4.2064 11.4483C4.24383 9.46016 4.83608 7.52206 5.91633 5.8526C6.99658 4.18315 8.52184 2.84877 10.3201 2L12.8401 1L12.3901 3.46C12.2239 4.5951 12.2919 5.75221 12.5901 6.86L13.8201 5.44C14.6358 4.50039 15.6433 3.74647 16.7749 3.22898C17.9065 2.7115 19.1358 2.44246 20.3801 2.44C21.912 2.44617 23.424 2.78749 24.8101 3.44C25.7936 3.87712 26.7372 4.39909 27.6301 5C28.8701 5.9 30.5701 7 32.3501 6.89C32.2901 5.75 31.3501 3.23 30.6601 2.76L30.3701 2.57L26.1901 0H31.1101C33.0998 0.0237004 35.055 0.52245 36.813 1.45471C38.5709 2.38697 40.0807 3.72576 41.2165 5.35958C42.3524 6.99339 43.0814 8.87495 43.343 10.8475C43.6045 12.8201 43.3909 14.8266 42.7201 16.7C42.7201 16.7 42.7201 16.78 42.6701 16.83C46.8401 17.94 49.5201 21.52 50.5601 23.16L52.8601 26.8L48.9301 25.3C47.3901 24.68 44.7601 25.42 43.9301 26C43.2313 26.4621 42.6562 27.0884 42.2553 27.824C41.8544 28.5596 41.6397 29.3823 41.6301 30.22C41.6286 31.0635 41.8405 31.8937 42.2461 32.6333C42.6518 33.3729 43.2379 33.9979 43.9501 34.45C44.8007 34.929 45.6013 35.4918 46.3401 36.13C46.9073 36.7828 47.3603 37.5265 47.6801 38.33C48.3114 39.6667 48.6522 41.122 48.6801 42.6C48.698 43.8761 48.6009 45.1513 48.3901 46.41C47.6817 50.4698 45.7236 54.2072 42.7889 57.1007C39.8543 59.9941 36.0895 61.8991 32.0201 62.55C29.0403 63.0162 25.993 62.7867 23.1167 61.8794C20.2404 60.9721 17.613 59.4116 15.4401 57.32C13.2046 55.168 11.5024 52.5238 10.4692 49.5979C9.43603 46.672 9.10029 43.5452 9.48875 40.4667C9.87722 37.3881 10.9791 34.4428 12.7068 31.8653C14.4344 29.2877 16.7401 27.1492 19.4401 25.62L20.8001 28.06C18.4813 29.3742 16.5013 31.2115 15.0179 33.4259C13.5345 35.6402 12.5886 38.1703 12.2555 40.8147C11.9224 43.4591 12.2113 46.1448 13.0992 48.6578C13.9872 51.1708 15.4496 53.4419 17.3701 55.29C19.2391 57.0884 21.4991 58.4296 23.9731 59.2086C26.4471 59.9876 29.0679 60.1832 31.6301 59.78C35.1111 59.2106 38.3288 57.5725 40.8372 55.0927C43.3457 52.6129 45.0207 49.4142 45.6301 45.94C45.8073 44.8525 45.8909 43.7518 45.8801 42.65C45.8694 41.5669 45.6345 40.4978 45.1901 39.51C44.9965 39.0073 44.7303 38.5356 44.4001 38.11C43.8192 37.6427 43.2004 37.2246 42.5501 36.86C41.4226 36.1575 40.4929 35.1791 39.849 34.0172C39.2051 32.8553 38.8681 31.5484 38.8701 30.22C38.8786 28.9243 39.2049 27.6505 39.8203 26.5102C40.4358 25.37 41.3216 24.3982 42.4001 23.68C43.6189 22.9436 44.9842 22.4828 46.4001 22.33C44.9056 20.6454 42.8385 19.5762 40.6001 19.33L40.1701 19.23L38.7201 18.62L39.4301 17.22C39.6995 16.7564 39.9303 16.2715 40.1201 15.77C40.5552 14.5636 40.7468 13.283 40.6837 12.0021C40.6207 10.7212 40.3043 9.46549 39.7528 8.30768C39.2014 7.14986 38.4258 6.11289 37.4709 5.25677C36.5161 4.40064 35.401 3.74236 34.1901 3.32C34.9059 4.76929 35.1905 6.39366 35.0101 8C34.9211 8.43547 34.6975 8.83196 34.3709 9.13343C34.0443 9.4349 33.6312 9.6261 33.1901 9.68C32.8878 9.71272 32.5841 9.72941 32.2801 9.73C29.9855 9.60443 27.79 8.75356 26.0101 7.3C25.2561 6.79827 24.4597 6.36329 23.6301 6C22.677 5.51681 21.6236 5.26501 20.5551 5.26501C19.4866 5.26501 18.4331 5.51681 17.4801 6C18.0361 6.4575 18.4326 7.07974 18.6123 7.77704C18.7921 8.47435 18.7457 9.21071 18.4801 9.88C18.0424 10.7876 17.3467 11.546 16.4801 12.06C15.8145 12.5049 15.0133 12.7007 14.2176 12.6129C13.4218 12.5251 12.6826 12.1593 12.1301 11.58C10.6812 9.97149 9.79336 7.93622 9.60007 5.78C8.52519 6.73312 7.73248 7.96292 7.30828 9.33545C6.88407 10.708 6.84464 12.1706 7.19427 13.564C7.54391 14.9574 8.26921 16.2281 9.29116 17.2378C10.3131 18.2474 11.5925 18.9573 12.9901 19.29L15.9901 19.96L13.6001 21.79C9.39863 24.9292 6.23041 29.2515 4.50152 34.203C2.77263 39.1545 2.56185 44.5095 3.89621 49.5816C5.23057 54.6537 8.04926 59.2117 11.991 62.6714C15.9327 66.1311 20.8178 68.3348 26.0201 69C30.1684 69.4926 34.3744 68.9669 38.2739 67.4684C42.1734 65.97 45.6491 63.5438 48.4001 60.4L50.4701 62.26C47.8017 65.3235 44.5068 67.7784 40.808 69.4587C37.1092 71.139 33.0927 72.0057 29.0301 72ZM12.7701 7.44C13.0612 8.27232 13.5169 9.03752 14.1101 9.69C14.2158 9.79844 14.3576 9.86442 14.5087 9.87547C14.6598 9.88653 14.8097 9.84189 14.9301 9.75C15.7901 9.18 15.9301 8.85 15.9301 8.83C15.9592 8.72243 15.9587 8.609 15.9288 8.50166C15.8989 8.39431 15.8406 8.29702 15.7601 8.22C15.4282 7.96549 15.0349 7.80334 14.6201 7.75L12.7701 7.44Z" fill="#009E60"/>
<path id="Vector_5" d="M28.1901 38.7702C27.425 38.7623 26.6748 38.9819 26.0348 39.4012C25.3948 39.8205 24.8938 40.4206 24.5955 41.1251C24.2972 41.8297 24.215 42.6071 24.3594 43.3585C24.5038 44.1098 24.8682 44.8014 25.4065 45.3452C25.9447 45.889 26.6323 46.2607 27.3822 46.4129C28.132 46.5651 28.9102 46.491 29.6178 46.2001C30.3255 45.9091 30.9307 45.4144 31.3567 44.7788C31.7826 44.1432 32.01 43.3954 32.0101 42.6302C32.0127 41.6126 31.6124 40.6353 30.8966 39.912C30.1808 39.1886 29.2077 38.7782 28.1901 38.7702ZM30.1901 43.3302C29.6122 43.6516 29.1372 44.1301 28.8201 44.7102L28.1901 46.0002L27.4901 44.7202C27.177 44.1404 26.7052 43.6618 26.1301 43.3402L24.8601 42.6402L26.1301 41.9402C26.7052 41.6187 27.177 41.14 27.4901 40.5602L28.1901 39.2802L28.8801 40.5602C29.1824 41.1287 29.6357 41.6027 30.1901 41.9302L31.4601 42.6302L30.1901 43.3302Z" fill="#009E60"/>
<path id="Vector_6" d="M28.1901 41.5701C27.9783 41.5581 27.7678 41.6099 27.5857 41.7188C27.4037 41.8277 27.2585 41.9888 27.169 42.1811C27.0795 42.3734 27.0498 42.5882 27.0837 42.7976C27.1175 43.007 27.2135 43.2014 27.359 43.3558C27.5046 43.5101 27.6931 43.6171 27.9002 43.6631C28.1073 43.7091 28.3234 43.6919 28.5206 43.6138C28.7178 43.5356 28.8871 43.4001 29.0064 43.2247C29.1257 43.0493 29.1897 42.8422 29.1901 42.6301C29.193 42.3583 29.0904 42.096 28.9039 41.8983C28.7174 41.7007 28.4615 41.583 28.1901 41.5701Z" fill="#009E60"/>
</g>
</g>
</g>
<defs>
<clipPath id="clip0_1623_17518">
<rect width="52.67" height="72" fill="white" transform="translate(0.190063)"/>
</clipPath>
</defs>
</svg>
